<?xml version="1.0" encoding="UTF-8" standalone="no"?>
<!-- Created with Inkscape (http://www.inkscape.org/) -->

<svg
   xmlns:dc="http://purl.org/dc/elements/1.1/"
   xmlns:cc="http://creativecommons.org/ns#"
   xmlns:rdf="http://www.w3.org/1999/02/22-rdf-syntax-ns#"
   xmlns:svg="http://www.w3.org/2000/svg"
   xmlns="http://www.w3.org/2000/svg"
   xmlns:sodipodi="http://sodipodi.sourceforge.net/DTD/sodipodi-0.dtd"
   xmlns:inkscape="http://www.inkscape.org/namespaces/inkscape"
   width="1000"
   height="350"
   id="svg2"
   version="1.1"
   inkscape:version="0.48.4 r9939"
   sodipodi:docname="Novo documento 1">
  <defs
     id="defs4" />
  <sodipodi:namedview
     id="base"
     pagecolor="#ffffff"
     bordercolor="#666666"
     borderopacity="1.0"
     inkscape:pageopacity="0.0"
     inkscape:pageshadow="2"
     inkscape:zoom="0.7"
     inkscape:cx="546.33001"
     inkscape:cy="65.149749"
     inkscape:document-units="px"
     inkscape:current-layer="layer1"
     showgrid="false"
     inkscape:window-width="1615"
     inkscape:window-height="1026"
     inkscape:window-x="65"
     inkscape:window-y="24"
     inkscape:window-maximized="1" />
  <metadata
     id="metadata7">
    <rdf:RDF>
      <cc:Work
         rdf:about="">
        <dc:format>image/svg+xml</dc:format>
        <dc:type
           rdf:resource="http://purl.org/dc/dcmitype/StillImage" />
        <dc:title></dc:title>
      </cc:Work>
    </rdf:RDF>
  </metadata>
  <g
     inkscape:label="Camada 1"
     inkscape:groupmode="layer"
     id="layer1"
     transform="translate(0,-702.36218)">
    <path
       style="fill:#000000"
       d="m 831.34625,1032.7861 c -0.50881,-0.5088 -0.92505,-34.68274 -0.92505,-75.9421 0,-41.25936 -0.5072,-75.01703 -1.12701,-75.01703 -0.61992,0 -2.4589,4.98808 -4.08665,11.08461 -8.68523,32.52966 -28.95877,57.61655 -57.42846,71.06317 -17.96311,8.48425 -31.23965,11.14191 -55.59367,11.12864 -22.47205,-0.0121 -31.57674,-1.55877 -48.10517,-8.17121 -14.95319,-5.9822 -24.62287,-12.46015 -36.6645,-24.56233 -9.70004,-9.74879 -12.66144,-13.83381 -18.53777,-25.57204 -3.84642,-7.68343 -7.9711,-17.48585 -9.16582,-21.78317 -1.19472,-4.29731 -2.66903,-7.81331 -3.27621,-7.81331 -0.60717,0 -1.26378,18.5919 -1.45914,41.31534 l -0.35537,41.31534 -24.85639,0 -24.85638,0 -0.77297,-57.77429 c -0.52064,-38.91186 -1.2928,-59.36122 -2.36525,-62.63492 -2.33153,-7.11659 -6.99956,-13.44221 -12.13194,-16.4397 -5.29468,-3.09226 -19.89666,-4.32628 -31.08364,-2.6269 l -7.38974,1.12257 -0.6718,69.17663 -0.67179,69.17661 -24.85638,0 -24.8564,0 -0.36209,-29.22304 c -0.33616,-27.12818 -1.39357,-34.61834 -3.60404,-25.52818 -0.49417,2.03217 -3.28171,8.64983 -6.19462,14.7059 -9.49473,19.74035 -26.51652,34.63906 -47.61354,41.67477 -9.47471,3.15977 -12.89845,3.59068 -28.88716,3.63567 -20.58767,0.0579 -28.12909,-1.62321 -43.58386,-9.71582 -14.61151,-7.65107 -26.0992,-20.06386 -34.5153,-37.29493 -3.79161,-7.76281 -7.18995,-13.8181 -7.55178,-13.45622 -0.36196,0.36189 0.0484,12.56803 0.9115,27.12475 0.89334,15.06624 1.06438,26.97174 0.39703,27.63908 -0.64465,0.64475 -12.31332,1.00708 -25.93019,0.80515 l -24.75803,-0.36713 -0.89227,-13.43588 c -0.49082,-7.38974 -1.59794,-31.27201 -2.46039,-53.07174 -1.78226,-45.05203 -4.42242,-84.13571 -5.77474,-85.48799 -1.09315,-1.09324 -1.81384,0.51623 -30.15577,67.34955 -12.22168,28.81997 -22.83012,53.1722 -23.57419,54.11609 -1.00636,1.27655 -6.035,1.6207 -19.63238,1.34359 l -18.27939,-0.37256 -22.169203,-51.76014 c -31.34041,-73.17278 -30.883991,-72.18237 -32.1815,-69.83461 -1.289306,2.33309 -4.817702,60.9432 -6.833758,113.51504 -0.764638,19.9423 -1.866108,36.73441 -2.447477,37.31582 -0.58138,0.58139 -12.19818,0.89189 -25.81504,0.68996 L 3.4424857,969.83201 3.8233902,955.05255 c 0.4560197,-17.69868 4.9551618,-91.97607 7.7314078,-127.64091 3.389879,-43.54638 8.173368,-87.00474 10.096575,-91.7296 1.237851,-3.04107 1.339292,-3.05137 26.450151,-2.68718 l 25.207606,0.3656 5.646151,10.74872 c 9.176308,17.46923 24.091879,49.87609 41.432509,90.0204 8.93782,20.69127 16.81447,37.54066 17.50386,37.4431 0.68926,-0.0975 4.16069,-7.05063 7.71409,-15.45127 21.71024,-51.32472 47.58332,-107.89267 53.98994,-118.0414 l 3.40344,-5.39133 23.52476,0 c 23.12262,0 23.54653,0.0518 24.79955,3.02307 1.65718,3.92986 7.37617,56.7141 10.2266,94.38707 1.23004,16.25742 2.45782,29.81086 2.72842,30.11878 0.98404,1.11971 1.91622,-0.9806 3.88499,-8.75388 3.46834,-13.69435 12.08154,-29.36035 21.81571,-39.67907 15.78541,-16.73333 34.30342,-25.0115 58.7656,-26.27022 39.46401,-2.03065 72.2821,19.37649 85.34312,55.669 1.66202,4.61859 3.54559,8.39742 4.18555,8.39742 0.63995,0 1.16355,-12.10725 1.16355,-26.90502 l 0,-26.90502 3.26626,-1.24183 c 4.98498,-1.8953 30.76307,-6.45865 45.38587,-8.03442 56.73504,-6.1138 89.06393,6.95555 101.21414,40.91708 3.02791,8.46373 4.33764,9.98098 5.0969,5.90459 4.34974,-23.3545 6.70248,-31.10133 13.81639,-45.49228 6.86143,-13.88033 8.89026,-16.67238 20.52237,-28.24238 14.84142,-14.76223 25.0895,-21.23143 42.46706,-26.80766 51.90269,-16.65487 107.81156,-0.94862 135.6894,38.11867 7.75856,10.87264 14.6157,25.50833 18.44935,39.37813 1.68365,6.09094 3.49266,11.07901 4.02016,11.08461 0.52748,0.006 1.1321,-5.88482 1.34359,-13.08981 l 0.38453,-13.09999 9.40511,-2.35115 c 28.63698,-7.15889 74.16959,-9.47467 92.03583,-4.68093 31.83163,8.54078 52.92865,29.22074 62.06317,60.83617 4.3191,14.94893 4.2863,48.19602 -0.0631,64.4317 -11.16643,41.67877 -40.17208,63.30087 -81.4787,60.73787 -6.65251,-0.41277 -16.01478,-1.98456 -20.8052,-3.49286 -4.7903,-1.50829 -9.16234,-2.28978 -9.7155,-1.73664 -0.55315,0.55314 -1.16838,15.19541 -1.36709,32.53832 l -0.36142,31.5327 -24.26722,0.3652 c -13.34695,0.2009 -24.68348,-0.051 -25.19229,-0.5598 z M 368.50464,927.28816 c 3.38006,-1.85945 7.58106,-5.8786 10.14664,-9.70715 6.86842,-10.24962 9.01803,-19.23595 9.03509,-37.76941 0.0135,-13.53671 -0.50089,-17.61961 -3.20042,-25.45235 -7.47035,-21.67481 -27.90862,-30.7236 -47.184,-20.89008 -19.4682,9.93193 -26.49544,51.66768 -13.28782,78.91778 6.46642,13.34148 17.00566,19.66631 31.05462,18.63656 4.63162,-0.33949 9.95155,-1.8185 13.43589,-3.73535 z m 557.95962,0.23225 c 11.80679,-5.71557 17.73376,-18.03979 19.06741,-39.64728 1.65732,-26.85074 -7.77347,-47.87431 -24.90249,-55.51381 -5.15078,-2.29725 -32.05412,-3.24395 -36.80034,-1.29496 -2.17433,0.89283 -2.35129,4.40492 -2.35129,46.65871 l 0,45.6932 3.44711,2.25858 c 9.60518,6.29359 30.439,7.2192 41.5396,1.84556 z M 725.8911,927.36294 c 31.68893,-6.62998 51.43511,-39.88109 48.98346,-82.48464 -1.34452,-23.36443 -7.85166,-41.09601 -19.66503,-53.58699 -23.24716,-24.58045 -63.63127,-24.36616 -86.35887,0.45822 -11.83782,12.92997 -18.01712,29.89245 -19.35426,53.12877 -3.19854,55.5828 30.5923,92.06741 76.3947,82.48464 z"
       id="path3050"
       inkscape:connector-curvature="0" />
  </g>
</svg>
